<svg xmlns="http://www.w3.org/2000/svg" version="1.1" xmlns:xlink="http://www.w3.org/1999/xlink" xmlns:svgjs="http://svgjs.dev/svgjs" width="250" height="45" viewBox="-10 0 250 45"><g transform="matrix(1,0,0,1,-1.2121212121212466,-0.10406694915181447)"><svg viewBox="-10 0 450 45" data-background-color="#f9f9f9" preserveAspectRatio="xMidYMid meet" height="45" width="250" xmlns="http://www.w3.org/2000/svg" xmlns:xlink="http://www.w3.org/1999/xlink"><g id="tight-bounds" transform="matrix(1,0,0,1,0.2400000000000091,0.02060731666372817)"><svg viewBox="0 0 395.52 59.95878536667254" height="59.95878536667254" width="395.52"><g><svg viewBox="0 0 494.0674540050396 74.89806945627662" height="59.95878536667254" width="395.52"><g><rect width="6.72078129191513" height="74.89806945627662" x="74.23300440968177" y="0" fill="#B38E2F" opacity="1" stroke-width="0" stroke="transparent" fill-opacity="1" class="rect-yte-0" data-fill-palette-color="primary" rx="1%" id="yte-0" data-palette-color="#B38E2F"></rect></g><g transform="matrix(1,0,0,1,98.54745400503964,0.1863136056126251)"><svg viewBox="0 0 395.52 74.52544224505137" height="74.52544224505137" width="395.52"><g id="textblocktransform"><svg viewBox="0 0 395.52 74.52544224505137" height="74.52544224505137" width="395.52" id="textblock"><g><svg viewBox="0 0 395.52 74.52544224505137" height="74.52544224505137" width="395.52"><g transform="matrix(1,0,0,1,0,0)"><svg width="395.52" viewBox="4.5 -37 199.53 37.6" height="74.52544224505137" data-palette-color="#888E2F"><path d="M13.7 0.4L13.7 0.4Q10.85 0.4 8.72 0.25 6.6 0.1 4.5-0.1L4.5-0.1 4.5-34.9Q6.85-35.15 9.1-35.27 11.35-35.4 14.25-35.4L14.25-35.4Q18.75-35.4 22.03-34 25.3-32.6 27.43-30.15 29.55-27.7 30.58-24.48 31.6-21.25 31.6-17.55L31.6-17.55Q31.6-13.9 30.55-10.65 29.5-7.4 27.33-4.93 25.15-2.45 21.78-1.03 18.4 0.4 13.7 0.4ZM13.85-3.75L13.85-3.75Q18.35-3.75 21.2-5.5 24.05-7.25 25.4-10.38 26.75-13.5 26.75-17.55L26.75-17.55Q26.75-21.15 25.4-24.3 24.05-27.45 21.25-29.38 18.45-31.3 14.1-31.3L14.1-31.3Q12.65-31.3 11.45-31.23 10.25-31.15 9.25-31.05L9.25-31.05 9.25-4Q10.3-3.85 11.45-3.8 12.6-3.75 13.85-3.75ZM48.5 0L43.55 0 35.35-24.8 39.5-26.25 46.2-5.1 52.3-24.15 57.15-24.15 63.1-5.1 69.75-26.25 73.75-24.8 65.5 0 60.55 0 54.55-19.35 48.5 0ZM88.9 0.6L88.9 0.6Q83.3 0.6 80.02-2.98 76.75-6.55 76.75-13L76.75-13Q76.75-16.9 78.22-19.98 79.7-23.05 82.34-24.83 85-26.6 88.5-26.6L88.5-26.6Q92.25-26.6 94.72-24.98 97.2-23.35 98.45-20.6 99.7-17.85 99.7-14.55L99.7-14.55Q99.7-12.8 99.55-11.15L99.55-11.15 81.34-11.15Q81.8-7.5 83.9-5.45 86-3.4 89.45-3.4L89.45-3.4Q91.7-3.4 93.5-3.88 95.3-4.35 96.95-5.1L96.95-5.1 98-1.25Q96.2-0.45 93.95 0.08 91.7 0.6 88.9 0.6ZM81.3-14.8L81.3-14.8 95.55-14.8Q95.55-18.6 93.65-20.65 91.75-22.7 88.4-22.7L88.4-22.7Q85.5-22.7 83.59-20.68 81.7-18.65 81.3-14.8ZM113.59 0.6L113.59 0.6Q111.29 0.6 109.44-0.28 107.59-1.15 106.52-3.1 105.44-5.05 105.44-8.15L105.44-8.15 105.44-37 109.94-37 109.94-8.6Q109.94-5.9 111.07-4.6 112.19-3.3 114.19-3.3L114.19-3.3Q115.14-3.3 116.07-3.53 116.99-3.75 117.64-4.05L117.64-4.05 118.74-0.4Q117.84 0 116.52 0.3 115.19 0.6 113.59 0.6ZM130.39 0.6L130.39 0.6Q128.09 0.6 126.24-0.28 124.39-1.15 123.32-3.1 122.24-5.05 122.24-8.15L122.24-8.15 122.24-37 126.74-37 126.74-8.6Q126.74-5.9 127.87-4.6 128.99-3.3 130.99-3.3L130.99-3.3Q131.94-3.3 132.87-3.53 133.79-3.75 134.44-4.05L134.44-4.05 135.54-0.4Q134.64 0 133.31 0.3 131.99 0.6 130.39 0.6ZM144.29 0L139.79 0 139.79-26 144.29-26 144.29 0ZM142.04-30.45L142.04-30.45Q140.74-30.45 139.81-31.4 138.89-32.35 138.89-33.6L138.89-33.6Q138.89-35.05 139.74-35.9 140.59-36.75 142.04-36.75L142.04-36.75Q143.34-36.75 144.26-35.83 145.19-34.9 145.19-33.6L145.19-33.6Q145.19-32.2 144.34-31.33 143.49-30.45 142.04-30.45ZM163.24 0.6L163.24 0.6Q159.54 0.6 156.59-1.13 153.64-2.85 151.96-5.93 150.29-9 150.29-13L150.29-13Q150.29-17.2 151.99-20.25 153.69-23.3 156.64-24.95 159.59-26.6 163.24-26.6L163.24-26.6Q166.89-26.6 169.81-24.95 172.74-23.3 174.46-20.28 176.19-17.25 176.19-13.1L176.19-13.1Q176.19-8.95 174.49-5.88 172.79-2.8 169.86-1.1 166.94 0.6 163.24 0.6ZM163.24-3.4L163.24-3.4Q167.19-3.4 169.39-6.08 171.59-8.75 171.59-13L171.59-13Q171.59-15.6 170.49-17.78 169.39-19.95 167.51-21.28 165.64-22.6 163.24-22.6L163.24-22.6Q159.29-22.6 157.09-20 154.89-17.4 154.89-13.1L154.89-13.1Q154.89-10.5 155.99-8.28 157.09-6.05 158.96-4.73 160.84-3.4 163.24-3.4ZM186.68 0L182.18 0 182.18-26 186.53-26 186.53-21.65Q187.93-23.75 190.11-25.18 192.28-26.6 195.28-26.6L195.28-26.6Q199.68-26.6 201.86-23.95 204.03-21.3 204.03-16.95L204.03-16.95 204.03 0 199.53 0 199.53-16.45Q199.53-19.25 198.21-20.95 196.88-22.65 194.53-22.65L194.53-22.65Q192.23-22.65 190.18-21.03 188.13-19.4 186.68-17.2L186.68-17.2 186.68 0Z" opacity="1" transform="matrix(1,0,0,1,0,0)" fill="#030303" class="wordmark-text-0" data-fill-palette-color="primary" id="text-0"></path></svg></g></svg></g></svg></g></svg></g><g transform="matrix(1,0,0,1,0,9.129366675018794)"><svg viewBox="0 0 56.63933610623903 56.63933610623903" height="56.63933610623903" width="56.63933610623903"><g><svg xmlns="http://www.w3.org/2000/svg" xmlns:xlink="http://www.w3.org/1999/xlink" version="1.2" baseProfile="tiny" x="0" y="0" viewBox="5 5 90 90" xml:space="preserve" height="56.63933610623903" width="56.63933610623903" class="icon-icon-0" data-fill-palette-color="accent" id="icon-0"><path d="M30 35H50L42.5 5H12.5L5 35H25V87.5H15V95H40V87.5H30zM14.606 27.5L18.356 12.5H36.644L40.394 27.5z" fill="#B38E2F" data-fill-palette-color="accent"></path><path d="M45 95H95V55H45zM52.5 62.5H87.5V72.5H52.5zM52.5 77.5H87.5V87.5H52.5z" fill="#B38E2F" data-fill-palette-color="accent"></path><rect x="67.5" y="65" width="5" height="5" fill="#B38E2F" data-fill-palette-color="accent"></rect><rect x="67.5" y="80" width="5" height="5" fill="#B38E2F" data-fill-palette-color="accent"></rect><path d="M65 40H95V15H65zM70 20H90V35H70z" fill="#B38E2F" data-fill-palette-color="accent"></path></svg></g></svg></g></svg></g><defs></defs></svg><rect width="395.52" height="59.95878536667254" fill="none" stroke="none" visibility="hidden"></rect></g></svg></g></svg>